<?xml version="1.0" encoding="iso-8859-1"?>
<!-- Generator: Adobe Illustrator 19.0.0, SVG Export Plug-In . SVG Version: 6.00 Build 0)  -->
<svg version="1.1" id="Capa_1" xmlns="http://www.w3.org/2000/svg" xmlns:xlink="http://www.w3.org/1999/xlink" x="0px" y="0px"
	 viewBox="0 0 512 512" style="enable-background:new 0 0 512 512;" xml:space="preserve">
<g>
	<g>
		<path d="M441.825,59.609H131.126c-4.142,0-7.5,3.358-7.5,7.5c0,4.142,3.358,7.5,7.5,7.5h310.699c4.142,0,7.5-3.358,7.5-7.5
			C449.325,62.967,445.967,59.609,441.825,59.609z"/>
	</g>
</g>
<g>
	<g>
		<path d="M411.639,342.508h-16.324c-0.903-2.68-1.985-5.293-3.24-7.825l11.542-11.542c3.876-3.875,3.878-10.152,0-14.027
			l-14.613-14.613c-3.026-3.025-7.534-3.67-11.208-1.959v-26.208c0-6.423-5.226-11.65-11.649-11.65h-31.943
			c-2.037-6.883-4.783-13.514-8.205-19.815l22.583-22.583c2.201-2.2,3.413-5.126,3.413-8.239s-1.212-6.038-3.412-8.237
			l-25.072-25.073c-4.543-4.541-11.933-4.539-16.474,0.001l-22.585,22.584c-6.301-3.421-12.931-6.166-19.814-8.205v-31.943
			c0-6.423-5.226-11.65-11.649-11.65h-35.457c-6.423,0-11.65,5.226-11.65,11.65v31.942c-6.884,2.038-13.515,4.783-19.815,8.205
			l-22.584-22.585c-4.542-4.54-11.932-4.539-16.474,0.001l-25.071,25.072c-2.2,2.2-3.412,5.125-3.412,8.237
			c0,3.111,1.212,6.037,3.412,8.238l22.584,22.584c-3.421,6.3-6.167,12.931-8.205,19.814h-31.943
			c-6.423,0-11.649,5.226-11.649,11.65v35.456c0,6.423,5.226,11.649,11.649,11.649h31.943c2.037,6.884,4.782,13.514,8.205,19.815
			l-22.585,22.585c-4.541,4.542-4.541,11.933,0.001,16.474l25.073,25.073c4.542,4.541,11.933,4.541,16.474-0.001l22.584-22.585
			c6.3,3.422,12.932,6.167,19.815,8.205v31.942c0,6.423,5.226,11.65,11.65,11.65h35.457c6.423,0,11.649-5.226,11.649-11.65v-2.63
			c0.469,1.527,1.305,2.926,2.466,4.087l14.611,14.611c3.876,3.877,10.15,3.877,14.026,0l11.543-11.542
			c2.532,1.255,5.145,2.337,7.826,3.24v16.324c0,5.469,4.449,9.919,9.919,9.919h20.663c5.469,0,9.918-4.449,9.918-9.919v-16.324
			c2.68-0.903,5.293-1.985,7.826-3.24l11.542,11.542c3.876,3.877,10.151,3.877,14.027,0l14.611-14.611
			c3.877-3.876,3.877-10.151,0-14.027l-11.543-11.543c1.255-2.533,2.337-5.145,3.24-7.826h16.324c5.469,0,9.919-4.449,9.919-9.918
			v-20.663C421.557,346.957,417.108,342.508,411.639,342.508z M259.084,342.508c-5.469,0-9.918,4.449-9.918,9.919
			c0,22.056-0.176,21.802,0.532,23.87c-0.092,0.728-0.059-1.277-0.059,35.299h-28.754v-34.361c0-3.484-2.399-6.509-5.792-7.303
			c-9.328-2.182-18.173-5.845-26.291-10.888c-2.958-1.838-6.795-1.396-9.261,1.068l-24.294,24.295l-20.332-20.332l24.294-24.294
			c2.464-2.464,2.906-6.3,1.068-9.261c-5.042-8.12-8.705-16.964-10.887-26.291c-0.793-3.393-3.819-5.792-7.303-5.792h-34.361
			v-28.754h34.361c3.484,0,6.509-2.399,7.303-5.792c2.182-9.327,5.844-18.171,10.886-26.29c1.838-2.96,1.396-6.796-1.068-9.261
			l-24.294-24.294l20.332-20.332l24.294,24.294c2.464,2.464,6.3,2.906,9.261,1.068c8.117-5.041,16.963-8.705,26.291-10.887
			c3.393-0.793,5.792-3.819,5.792-7.303v-34.361h28.754v34.361c0,3.484,2.399,6.509,5.792,7.303
			c9.327,2.182,18.172,5.845,26.291,10.887c2.96,1.837,6.796,1.397,9.261-1.068l24.295-24.294l20.331,20.332l-24.294,24.294
			c-2.464,2.464-2.906,6.3-1.068,9.26c5.042,8.121,8.706,16.965,10.887,26.291c0.793,3.393,3.819,5.792,7.303,5.792h34.361v28.754
			h-7.185v-11.959c0-5.469-4.449-9.919-9.918-9.919h-20.663c-5.469,0-9.919,4.449-9.919,9.919v16.324
			c-2.681,0.903-5.293,1.985-7.826,3.24l-11.544-11.543c-2.679-2.677-6.727-3.579-10.275-2.35c0.423-2.634,0.643-5.337,0.643-8.089
			c0-28.038-22.81-50.848-50.848-50.848s-50.848,22.81-50.848,50.848s22.81,50.848,50.848,50.848
			c12.181,0,23.374-4.304,32.14-11.474l11.246,11.246c-1.281,2.585-2.379,5.271-3.24,7.826H259.084z M271.109,284.06
			c0,19.766-16.081,35.847-35.847,35.847c-19.766,0-35.847-16.081-35.847-35.847c0-19.766,16.081-35.847,35.847-35.847
			C255.028,248.213,271.109,264.294,271.109,284.06z M267.106,402.374c-1.161,1.161-1.997,2.559-2.466,4.085v-23.453h10.768
			c0.903,2.68,1.985,5.293,3.24,7.826L267.106,402.374z M406.559,368.005h-16.896c-3.484,0-6.509,2.399-7.303,5.792
			c-1.193,5.102-3.197,9.941-5.956,14.384c-1.838,2.96-1.396,6.796,1.068,9.261l11.947,11.947l-7.423,7.423l-11.946-11.946
			c-2.463-2.464-6.3-2.906-9.261-1.068c-4.441,2.758-9.281,4.762-14.384,5.956c-3.392,0.793-5.792,3.819-5.792,7.303v16.896h-10.499
			v-16.896c0-3.484-2.399-6.509-5.792-7.303c-5.103-1.194-9.943-3.198-14.384-5.956c-2.959-1.838-6.796-1.397-9.261,1.068
			l-11.946,11.946l-7.423-7.423l11.946-11.947c2.464-2.464,2.906-6.3,1.068-9.261c-2.758-4.441-4.762-9.282-5.956-14.384
			c-0.793-3.392-3.819-5.792-7.303-5.792h-16.895v-10.499h16.896c3.048,0,5.746-1.837,6.904-4.569
			c0.645-1.521,1.473-7.747,6.354-15.607c1.838-2.96,1.396-6.796-1.068-9.261l-11.946-11.946l7.423-7.424l11.946,11.946
			c2.464,2.464,6.3,2.907,9.261,1.068c4.44-2.757,9.28-4.761,14.384-5.955c3.392-0.793,5.792-3.819,5.792-7.303v-16.896h10.499
			c0,6.403,0,10.44,0,16.896c0,3.484,2.399,6.509,5.792,7.303c5.103,1.194,9.943,3.197,14.384,5.955
			c2.961,1.839,6.797,1.396,9.261-1.068l11.945-11.944l7.423,7.423l-11.946,11.946c-2.464,2.464-2.906,6.3-1.068,9.261
			c2.758,4.441,4.762,9.281,5.956,14.383c0.793,3.393,3.819,5.792,7.303,5.792h16.896V368.005z"/>
	</g>
</g>
<g>
	<g>
		<path d="M335.362,329.994c-18.065,0-32.763,14.698-32.763,32.763c0,18.065,14.698,32.763,32.763,32.763
			c18.065,0,32.762-14.697,32.762-32.763C368.124,344.691,353.427,329.994,335.362,329.994z M335.362,380.519
			c-9.794,0-17.762-7.967-17.762-17.762c0-9.795,7.968-17.762,17.762-17.762s17.761,7.968,17.761,17.762
			C353.123,372.551,345.156,380.519,335.362,380.519z"/>
	</g>
</g>
<g>
	<g>
		<path d="M504.5,294.061c-4.142,0-7.5,3.358-7.5,7.5v174.28c0,2.439-2.061,4.5-4.5,4.5H273.501c-4.142,0-7.5,3.358-7.5,7.5
			s3.358,7.5,7.5,7.5h218.997c10.753,0,19.501-8.748,19.501-19.501v-174.28C512,297.419,508.642,294.061,504.5,294.061z"/>
	</g>
</g>
<g>
	<g>
		<path d="M492.499,16.658h-0.386H89.928H19.887h-0.386C8.749,16.658,0,25.407,0,36.159v0.386v439.296
			c0,10.753,8.749,19.501,19.501,19.501h218.997c4.142,0,7.5-3.358,7.5-7.5s-3.358-7.5-7.5-7.5H19.501c-2.439,0-4.5-2.061-4.5-4.5
			V117.56h481.998v148.999c0,4.142,3.358,7.5,7.5,7.5c4.142,0,7.5-3.358,7.5-7.5V36.545v-0.386
			C512,25.407,503.251,16.658,492.499,16.658z M82.428,102.559H15.001V36.545c0-2.648,2.238-4.886,4.886-4.886h62.541V102.559z
			 M496.999,102.559H97.429v-70.9h394.684c2.648,0,4.886,2.238,4.886,4.886V102.559z"/>
	</g>
</g>
<g>
</g>
<g>
</g>
<g>
</g>
<g>
</g>
<g>
</g>
<g>
</g>
<g>
</g>
<g>
</g>
<g>
</g>
<g>
</g>
<g>
</g>
<g>
</g>
<g>
</g>
<g>
</g>
<g>
</g>
</svg>
